<?xml version="1.0" encoding="UTF-8" standalone="no"?>
<svg width="40px" height="64px" viewBox="0 0 40 64" version="1.1" xmlns="http://www.w3.org/2000/svg" xmlns:xlink="http://www.w3.org/1999/xlink" xmlns:sketch="http://www.bohemiancoding.com/sketch/ns">
    <!-- Generator: Sketch 3.4.2 (15855) - http://www.bohemiancoding.com/sketch -->
    <title>location-pin copy</title>
    <desc>Created with Sketch.</desc>
    <defs></defs>
    <g id="Page-1" stroke="none" stroke-width="1" fill="none" fill-rule="evenodd" sketch:type="MSPage">
        <g id="Artboard-3" sketch:type="MSArtboardGroup" transform="translate(-26.000000, -86.000000)" fill="#66D295">
            <g id="location-pin-copy" sketch:type="MSLayerGroup" transform="translate(26.000000, 86.000000)">
                <g id="Location_pin" sketch:type="MSShapeGroup">
                    <path d="M20,0 C8.952,0 0,8.916 0,19.96 C0,39.056 20,63.96 20,63.96 C20,63.96 40,39.052 40,19.96 C40,8.92 31.048,0 20,0 L20,0 Z M20.2169043,30.3199997 L14.394631,33.1828412 C12.4161864,34.1556525 11.0670903,33.172833 11.3805716,30.9929989 L12.3041143,24.5710213 L7.78220884,19.918377 C6.24563733,18.3373797 6.76346059,16.7506051 8.93347707,16.3751378 L15.3265311,15.2689789 L18.3541131,9.53064502 C19.3829043,7.58072362 21.0520327,7.58286251 22.0796954,9.53064502 L25.1072774,15.2689789 L31.5003315,16.3751378 C33.6727309,16.7510174 34.1864857,18.3391139 32.6515997,19.918377 L28.1296942,24.5710213 L29.0532369,30.9929989 C29.3670624,33.1752267 28.0154519,34.1545854 26.0391775,33.1828412 L20.2169043,30.3199997 Z" id="Shape"></path>
                </g>
            </g>
        </g>
    </g>
</svg>