<?xml version="1.0" encoding="UTF-8" standalone="no"?>
<svg width="30px" height="48px" viewBox="0 0 30 48" version="1.1" xmlns="http://www.w3.org/2000/svg" xmlns:xlink="http://www.w3.org/1999/xlink" xmlns:sketch="http://www.bohemiancoding.com/sketch/ns">
    <!-- Generator: Sketch 3.4.2 (15855) - http://www.bohemiancoding.com/sketch -->
    <title>Shape</title>
    <desc>Created with Sketch.</desc>
    <defs></defs>
    <g id="Page-1" stroke="none" stroke-width="1" fill="none" fill-rule="evenodd" sketch:type="MSPage">
        <g id="Artboard-3" sketch:type="MSArtboardGroup" transform="translate(-26.000000, -5.000000)" fill="#8CD6AD">
            <g id="location-pin" sketch:type="MSLayerGroup" transform="translate(26.000000, 5.000000)">
                <g id="Location_pin" sketch:type="MSShapeGroup">
                    <path d="M15,0 C6.714,0 0,6.687 0,14.97 C0,29.292 15,47.97 15,47.97 C15,47.97 30,29.289 30,14.97 C30,6.69 23.286,0 15,0 L15,0 Z M15,23.253 C10.524,23.253 6.9,19.626 6.9,15.153 C6.9,10.68 10.524,7.053 15,7.053 C19.47,7.053 23.097,10.68 23.097,15.153 C23.097,19.626 19.47,23.253 15,23.253 L15,23.253 Z" id="Shape"></path>
                </g>
            </g>
        </g>
    </g>
</svg>